# xmcd CD database file
#
# Track frame offsets:
#	150
#	24868
#	47552
#	60381
#	93076
#	109112
#	128634
#	143830
#	161590
#	175932
#	196049
#	217867
#	239082
#	261564
#	279650
#	288110
#	302632
#	315975
#
# Disc length: 4439 seconds
#
# Revision: 0
# Processed by: cddbd v1.5PL3 Copyright (c) Steve Scherf et al.
# Submitted via: CDex 1.51
#
DISCID=f1115512
DTITLE=Blues Till The End Of The Evening - Blues Till The End Of The Evening
DYEAR=1900
DGENRE=Blues
TTITLE0=Albert King/ Born Under A Bad Sign
TTITLE1=Albert King/ Ask me no Question
TTITLE2=albert King/ Born Under A Bad Sign
TTITLE3=B.B.King/ Stormy Monday Blues
TTITLE4=George Thorogood/ Cocaine Blues
TTITLE5=George Thorogood/ Who Do You Love
TTITLE6=Joanna Connor/ Texas Flyer
TTITLE7=Joanna Connor/ Believe it
TTITLE8=Joanna Connor/ Sweet Baby
TTITLE9=Joanna Connor/ Free Free Woman
TTITLE10=Pinetop Perkins/ You Don't Have to Go
TTITLE11=Pinetop Perkins/ Down in Mississippi
TTITLE12=Albert Collins/ The Moon is Full
TTITLE13=Mississpi Heat/ Track 3
TTITLE14=Johnny Otis/ Good Golly
TTITLE15=Bessie Smith/ Favourite Swing
TTITLE16=Atkins/ Lazy River
TTITLE17=VA/ Track 18
EXTD=
EXTT0=
EXTT1=
EXTT2=
EXTT3=
EXTT4=
EXTT5=
EXTT6=
EXTT7=
EXTT8=
EXTT9=
EXTT10=
EXTT11=
EXTT12=
EXTT13=
EXTT14=
EXTT15=
EXTT16=
EXTT17=
PLAYORDER=
